<?xml version="1.0" standalone="no"?>
<!DOCTYPE svg PUBLIC "-//W3C//DTD SVG 20010904//EN"
 "http://www.w3.org/TR/2001/REC-SVG-20010904/DTD/svg10.dtd">
<svg version="1.0" xmlns="http://www.w3.org/2000/svg"
 width="512.000000pt" height="512.000000pt" viewBox="0 0 512.000000 512.000000"
 preserveAspectRatio="xMidYMid meet">
<metadata>
Created by potrace 1.14, written by Peter Selinger 2001-2017
</metadata>
<g transform="translate(0.000000,512.000000) scale(0.100000,-0.100000)"
fill="#000000" stroke="none">
<path d="M2369 5116 c-2 -2 -34 -6 -70 -10 -399 -37 -817 -188 -1160 -417
-633 -423 -1044 -1103 -1126 -1864 -10 -93 -9 -463 1 -545 5 -36 10 -72 11
-80 8 -66 32 -184 57 -278 144 -555 456 -1030 909 -1384 271 -211 610 -377
939 -459 116 -29 130 -32 210 -44 25 -4 56 -9 70 -11 115 -20 472 -26 610 -11
116 13 118 13 239 37 564 107 1091 422 1476 881 70 83 203 273 244 349 149
276 248 538 286 759 3 19 8 37 10 40 3 6 8 33 21 123 26 185 26 521 0 718 -5
31 -17 102 -20 115 -2 6 -6 28 -10 50 -13 70 -57 227 -88 315 -189 534 -520
962 -990 1284 -53 36 -100 66 -104 66 -4 0 -15 6 -23 14 -20 18 -257 137 -331
166 -154 62 -408 136 -498 145 -18 2 -36 6 -40 8 -4 3 -36 8 -72 12 -36 4 -74
9 -85 12 -23 5 -461 14 -466 9z"/>
</g>
</svg>
